HIERARCHY
ROOT Hips
{
	OFFSET 0.000000 0.000000 0.000000
	CHANNELS 6 Xposition Yposition Zposition Zrotation Yrotation Xrotation 
	JOINT LHipJoint
	{
		OFFSET 0.000000 0.000000 0.000000
		CHANNELS 3 Zrotation Yrotation Xrotation
		JOINT LeftUpLeg
		{
			OFFSET 1.363060 -1.794630 0.839290
			CHANNELS 3 Zrotation Yrotation Xrotation
			JOINT LeftLeg
			{
				OFFSET 2.448110 -6.726130 0.000000
				CHANNELS 3 Zrotation Yrotation Xrotation
				JOINT LeftFoot
				{
					OFFSET 2.562200 -7.039590 0.000000
					CHANNELS 3 Zrotation Yrotation Xrotation
					JOINT LeftToeBase
					{
						OFFSET 0.157640 -0.433110 2.322550
						CHANNELS 3 Zrotation Yrotation Xrotation
						End Site
						{
							OFFSET 0.000000 0.000000 0.000000
						}
					}
				}
			}
		}
	}
	JOINT RHipJoint
	{
		OFFSET 0.000000 0.000000 0.000000
		CHANNELS 3 Zrotation Yrotation Xrotation
		JOINT RightUpLeg
		{
			OFFSET -1.305520 -1.794630 0.839290
			CHANNELS 3 Zrotation Yrotation Xrotation
			JOINT RightLeg
			{
				OFFSET -2.542530 -6.985550 0.000000
				CHANNELS 3 Zrotation Yrotation Xrotation
				JOINT RightFoot
				{
					OFFSET -2.568260 -7.056230 0.000000
					CHANNELS 3 Zrotation Yrotation Xrotation
					JOINT RightToeBase
					{
						OFFSET -0.164730 -0.452590 2.363150
						CHANNELS 3 Zrotation Yrotation Xrotation
						End Site
						{
							OFFSET 0.000000 0.000000 0.000000
						}
					}
				}
			}
		}
	}
	JOINT LowerBack
	{
		OFFSET 0.000000 0.000000 0.000000
		CHANNELS 3 Zrotation Yrotation Xrotation
		JOINT Spine
		{
			OFFSET 0.028270 2.035590 -0.193380
			CHANNELS 3 Zrotation Yrotation Xrotation
			JOINT Spine1
			{
				OFFSET 0.056720 2.048850 -0.042750
				CHANNELS 3 Zrotation Yrotation Xrotation
				JOINT Neck
				{
					OFFSET 0.000000 0.000000 0.000000
					CHANNELS 3 Zrotation Yrotation Xrotation
					JOINT Neck1
					{
						OFFSET -0.054170 1.746240 0.172020
						CHANNELS 3 Zrotation Yrotation Xrotation
						JOINT Head
						{
							OFFSET 0.104070 1.761360 -0.123970
							CHANNELS 3 Zrotation Yrotation Xrotation
							End Site
							{
								OFFSET 0.000000 0.000000 0.000000
							}
						}
					}
				}
				JOINT LeftShoulder
				{
					OFFSET 0.000000 0.000000 0.000000
					CHANNELS 3 Zrotation Yrotation Xrotation
					JOINT LeftArm
					{
						OFFSET 3.362410 1.200890 -0.311210
						CHANNELS 3 Zrotation Yrotation Xrotation
						JOINT LeftForeArm
						{
							OFFSET 4.983000 -0.000000 -0.000000
							CHANNELS 3 Zrotation Yrotation Xrotation
							JOINT LeftHand
							{
								OFFSET 3.483560 -0.000000 -0.000000
								CHANNELS 3 Zrotation Yrotation Xrotation
								JOINT LeftFingerBase
								{
									OFFSET 0.000000 0.000000 0.000000
									CHANNELS 3 Zrotation Yrotation Xrotation
									JOINT LeftHandIndex1
									{
										OFFSET 0.715260 -0.000000 -0.000000
										CHANNELS 3 Zrotation Yrotation Xrotation
										End Site
										{
											OFFSET 0.000000 0.000000 0.000000
										}
									}
								}
								JOINT LThumb
								{
									OFFSET 0.000000 0.000000 0.000000
									CHANNELS 3 Zrotation Yrotation Xrotation
									End Site
									{
										OFFSET 0.000000 0.000000 0.000000
									}
								}
							}
						}
					}
				}
				JOINT RightShoulder
				{
					OFFSET 0.000000 0.000000 0.000000
					CHANNELS 3 Zrotation Yrotation Xrotation
					JOINT RightArm
					{
						OFFSET -3.136600 1.374050 -0.404650
						CHANNELS 3 Zrotation Yrotation Xrotation
						JOINT RightForeArm
						{
							OFFSET -5.241900 -0.000000 -0.000000
							CHANNELS 3 Zrotation Yrotation Xrotation
							JOINT RightHand
							{
								OFFSET -3.444170 -0.000000 -0.000000
								CHANNELS 3 Zrotation Yrotation Xrotation
								JOINT RightFingerBase
								{
									OFFSET 0.000000 0.000000 0.000000
									CHANNELS 3 Zrotation Yrotation Xrotation
									JOINT RightHandIndex1
									{
										OFFSET -0.622530 -0.000000 -0.000000
										CHANNELS 3 Zrotation Yrotation Xrotation
										End Site
										{
											OFFSET 0.000000 0.000000 0.000000
										}
									}
								}
								JOINT RThumb
								{
									OFFSET 0.000000 0.000000 0.000000
									CHANNELS 3 Zrotation Yrotation Xrotation
									End Site
									{
										OFFSET 0.000000 0.000000 0.000000
									}
								}
							}
						}
					}
				}
			}
		}
	}
}
MOTION
Frames: 10
Frame Time: 0.008333
16.169950 16.828008 1.411082 150.773579 -87.197470 -100.061314 -8.675752 -0.706760 3.105506 -8.688583 -8.704827 -56.183980 -2.497376 -1.660370 13.659028 3.656765 14.216649 -11.592117 0.047899 0.000000 -39.713700 8.168834 0.370212 4.875134 1.915385 9.993355 -58.837937 2.011912 0.967703 16.031990 -3.477246 -10.364888 -11.890446 -0.547800 0.000000 -56.666699 -0.076711 -2.616079 -4.116628 -0.519665 -2.783635 -3.335014 -4.851564 -2.967851 2.397842 10.022334 -15.935027 -13.219384 -1.319214 0.001225 -1.899848 0.000000 0.000000 0.000000 -4.670777 18.278091 2.509178 -57.484824 45.150788 6.325864 -2.843121 -19.685450 0.001387 0.691839 0.014252 0.000932 -0.132159 -0.095750 0.000000 0.000000 0.000000 0.000000 0.000000 0.000000 0.000000 12.623284 -15.237867 2.563544 51.586161 -40.632159 -22.604926 2.735915 6.941067 0.013510 -7.165827 6.204370 -0.406137 0.221106 -0.084798 -0.000000 0.000000 0.000000 0.000000 0.000000 0.000000 0.000000 
16.147597 16.740697 1.405019 148.585316 -87.167605 -96.760430 -8.536725 -0.665131 3.231419 -8.670968 -9.298406 -58.727797 -2.515317 -1.418933 16.295475 3.821711 14.195351 -12.900071 -0.281500 0.000001 -39.559300 8.200278 0.432238 5.030449 1.464296 10.244967 -61.611858 1.922383 0.628523 19.006529 -3.635913 -10.371767 -13.201394 -0.285701 0.000000 -55.891200 -0.132392 -2.646856 -4.323083 -0.545266 -2.819309 -3.397851 -4.869583 -3.006854 2.366308 10.103919 -15.951209 -13.369771 -1.320820 0.004521 -1.962238 0.000000 0.000000 0.000000 -4.836167 18.180160 2.584057 -57.582066 44.888535 6.215768 -2.805354 -20.262501 0.001297 0.662604 0.009553 0.000833 -0.129495 -0.090948 0.000000 0.000000 0.000000 0.000000 0.000000 0.000000 0.000000 12.775136 -15.219314 2.670802 52.196159 -40.564760 -22.380312 2.698823 7.608533 0.012585 -6.888463 6.014652 -0.378836 0.215698 -0.085076 -0.000000 0.000000 0.000000 0.000000 0.000000 0.000000 0.000000 
16.124037 16.641907 1.399100 145.958579 -87.140409 -93.006789 -8.402584 -0.608691 3.371152 -8.668529 -9.902067 -61.408226 -2.530606 -1.138786 19.131089 3.982472 14.124247 -14.260508 -0.626900 -0.000000 -39.390200 8.243904 0.507088 5.190273 0.995466 10.439132 -64.494086 1.826368 0.259776 22.162558 -3.792233 -10.358154 -14.591078 -0.001000 0.000000 -55.101300 -0.182865 -2.681057 -4.560246 -0.569132 -2.859593 -3.467455 -4.885328 -3.050685 2.338992 10.183366 -15.980017 -13.521090 -1.322676 0.007813 -2.024578 0.000000 0.000000 0.000000 -4.972096 18.081683 2.660486 -57.705684 44.561406 6.128069 -2.767910 -20.818931 0.001249 0.637139 -0.010354 0.000636 -0.126860 -0.085854 0.000000 0.000000 0.000000 0.000000 0.000000 0.000000 0.000000 12.929714 -15.216302 2.773614 52.810954 -40.456459 -22.055750 2.665233 8.308222 0.011698 -6.611120 5.820018 -0.352136 0.210374 -0.085277 -0.000000 0.000000 0.000000 0.000000 0.000000 0.000000 0.000000 
16.099579 16.531398 1.393501 142.932198 -87.110972 -88.845572 -8.278388 -0.540701 3.525453 -8.666003 -10.522675 -64.208055 -2.535179 -0.819900 22.153882 4.140049 14.022426 -15.660073 -0.983100 -0.000000 -39.199499 8.297197 0.596252 5.352533 0.512186 10.574746 -67.461088 1.722797 -0.135793 25.478774 -3.944506 -10.331214 -16.042253 0.302300 0.000000 -54.326000 -0.225725 -2.717204 -4.827404 -0.591255 -2.903262 -3.545039 -4.901627 -3.098226 2.310539 10.259812 -16.012670 -13.667829 -1.326998 0.010774 -2.084996 0.000000 0.000000 0.000000 -5.105047 17.959684 2.734725 -57.841184 44.219667 6.028640 -2.731637 -21.391408 0.001201 0.606401 -0.033329 0.000438 -0.124198 -0.080629 0.000000 0.000000 0.000000 0.000000 0.000000 0.000000 0.000000 13.090134 -15.220423 2.872554 53.423998 -40.319530 -21.690551 2.634680 9.026233 0.010858 -6.326473 5.627481 -0.326133 0.205060 -0.085587 -0.000000 0.000000 0.000000 0.000000 0.000000 0.000000 0.000000 
16.073962 16.408866 1.388430 139.551319 -87.074816 -84.326296 -8.167733 -0.465486 3.695580 -8.646236 -11.168515 -67.114770 -2.520579 -0.464487 25.350351 4.296154 13.911322 -17.085237 -1.346000 -0.000000 -38.986800 8.357958 0.700746 5.516632 0.016279 10.651330 -70.497122 1.610438 -0.555296 28.935127 -4.091110 -10.297135 -17.537248 0.619800 0.000000 -53.598200 -0.262051 -2.754764 -5.125731 -0.611063 -2.949658 -3.629018 -4.915744 -3.148677 2.287346 10.333044 -16.059373 -13.813191 -1.331947 0.013632 -2.144283 0.000000 0.000000 0.000000 -5.212189 17.838748 2.808328 -57.994948 43.818120 5.942096 -2.696055 -21.931144 0.001200 0.583454 -0.071995 0.000141 -0.121646 -0.075193 0.000000 0.000000 0.000000 0.000000 0.000000 0.000000 0.000000 13.252725 -15.241894 2.965266 54.020349 -40.138875 -21.245973 2.607103 9.754769 0.010060 -6.051926 5.434087 -0.301532 0.199950 -0.085867 -0.000000 0.000000 0.000000 0.000000 0.000000 0.000000 0.000000 
16.047013 16.274382 1.384096 135.897820 -87.027940 -79.539033 -8.075092 -0.389587 3.879321 -8.595388 -11.837946 -70.104318 -2.479567 -0.076840 28.700898 4.451129 13.807959 -18.522185 -1.712900 -0.000000 -38.760100 8.422441 0.819550 5.680332 -0.484396 10.670298 -73.574170 1.488564 -0.994311 32.503042 -4.230124 -10.261884 -19.054264 0.946800 -0.000001 -52.952700 -0.289590 -2.792458 -5.450883 -0.628570 -2.997658 -3.719547 -4.930547 -3.200960 2.264705 10.401677 -16.109713 -13.951401 -1.339965 0.016036 -2.200564 0.000000 0.000000 0.000000 -5.317659 17.698213 2.878092 -58.156720 43.398019 5.838377 -2.661523 -22.470044 0.001216 0.563243 -0.117388 -0.000156 -0.119158 -0.069688 0.000000 0.000000 0.000000 0.000000 0.000000 0.000000 0.000000 13.420678 -15.270374 3.052382 54.600977 -39.923750 -20.780980 2.581899 10.485889 0.009310 -5.782345 5.245070 -0.278430 0.194981 -0.086279 -0.000000 0.000000 0.000000 0.000000 0.000000 0.000000 0.000000 
16.018939 16.128168 1.380699 132.062356 -86.967822 -74.582815 -8.003116 -0.320389 4.073424 -8.501450 -12.525756 -73.152397 -2.406381 0.336883 32.183748 4.605094 13.727545 -19.958092 -2.082400 0.000000 -38.532899 8.487547 0.950660 5.841683 -0.980508 10.634136 -76.666337 1.356536 -1.448411 36.154344 -4.359931 -10.230550 -20.572699 1.278600 -0.000000 -52.419800 -0.306888 -2.829588 -5.797552 -0.643204 -3.046502 -3.814807 -4.945688 -3.254210 2.244178 10.464386 -16.163631 -14.081544 -1.351085 0.017958 -2.253495 0.000000 0.000000 0.000000 -5.418940 17.543647 2.943886 -58.328075 42.946973 5.720699 -2.627642 -22.994173 0.001264 0.552517 -0.172623 -0.000453 -0.116784 -0.064121 0.000000 0.000000 0.000000 0.000000 0.000000 0.000000 0.000000 13.592376 -15.305515 3.133055 55.162608 -39.667661 -20.297308 2.558493 11.215249 0.008597 -5.528130 5.060852 -0.257128 0.190249 -0.086803 -0.000000 0.000000 0.000000 0.000000 0.000000 0.000000 0.000000 
15.989706 15.970684 1.378355 128.137592 -86.894081 -69.559592 -7.952775 -0.265493 4.273099 -8.356564 -13.222302 -76.231043 -2.297563 0.769115 35.773593 4.757429 13.681012 -21.381996 -2.454300 -0.000000 -38.321800 8.550700 1.091038 5.998306 -1.460090 10.547564 -79.746868 1.213794 -1.913121 39.860881 -4.479312 -10.207490 -22.073957 1.611400 0.000000 -52.022100 -0.311205 -2.865542 -6.158060 -0.654421 -3.095591 -3.913006 -4.962114 -3.307738 2.225146 10.519741 -16.215534 -14.201022 -1.366403 0.019240 -2.302287 0.000000 0.000000 0.000000 -5.521830 17.372843 3.004963 -58.507846 42.466010 5.585161 -2.594045 -23.504383 0.001340 0.554082 -0.236841 -0.000850 -0.114521 -0.058540 0.000000 0.000000 0.000000 0.000000 0.000000 0.000000 0.000000 13.768286 -15.341226 3.206982 55.707709 -39.367892 -19.813326 2.536076 11.940866 0.007920 -5.296630 4.883495 -0.238026 0.185806 -0.087478 -0.000000 0.000000 0.000000 0.000000 0.000000 0.000000 0.000000 
15.959552 15.802645 1.377212 124.202830 -86.808696 -64.559690 -7.923055 -0.231717 4.472858 -8.156574 -13.914917 -79.309019 -2.152043 1.211439 39.441017 4.907117 13.675955 -22.784578 -2.828900 -0.000000 -38.145400 8.610395 1.237296 6.147405 -1.909754 10.416249 -82.787939 1.059895 -2.384122 43.594237 -4.587486 -10.196197 -23.542208 1.942200 -0.000000 -51.772400 -0.298984 -2.899792 -6.523380 -0.661540 -3.144434 -4.012098 -4.980959 -3.360955 2.206759 10.566621 -16.259260 -14.307610 -1.387055 0.019721 -2.346283 0.000000 0.000000 0.000000 -5.632383 17.183912 3.060799 -58.694994 41.954232 5.430128 -2.560377 -24.003008 0.001437 0.569659 -0.307407 -0.001346 -0.112345 -0.053003 -0.000000 0.000000 0.000000 0.000000 0.000000 0.000000 0.000000 13.949129 -15.370543 3.273957 56.240240 -39.022101 -19.344157 2.513847 12.662775 0.007269 -5.095887 4.714873 -0.221424 0.181711 -0.088330 -0.000000 0.000000 0.000000 0.000000 0.000000 0.000000 0.000000 
15.928390 15.624993 1.377234 120.320187 -86.714560 -59.656126 -7.911134 -0.223953 4.667343 -7.901999 -14.590707 -82.355378 -1.971136 1.655667 43.155393 5.053004 13.716358 -24.159566 -3.207300 -0.000000 -38.019700 8.666186 1.386218 6.286080 -2.316131 10.247440 -85.763542 0.894281 -2.857486 47.328430 -4.684239 -10.199112 -24.966138 2.268901 -0.000000 -51.672301 -0.266301 -2.931866 -6.884257 -0.664031 -3.192683 -4.110432 -5.004292 -3.413447 2.186637 10.604753 -16.284760 -14.398600 -1.414922 0.019163 -2.384711 0.000000 0.000000 0.000000 -5.762008 16.970456 3.110630 -58.884699 41.419323 5.251809 -2.526305 -24.501379 0.001540 0.598210 -0.377714 -0.001841 -0.110195 -0.047611 -0.000000 0.000000 0.000000 0.000000 0.000000 0.000000 0.000000 14.138053 -15.382332 3.334177 56.766754 -38.630993 -18.914362 2.490962 13.383184 0.006637 -4.931178 4.557130 -0.207322 0.177984 -0.089415 -0.000000 0.000000 0.000000 0.000000 0.000000 0.000000 0.000000 
